<svg width="14" height="14" viewBox="0 0 14 14" fill="none" xmlns="http://www.w3.org/2000/svg">
<path d="M12.956 14C13.2519 14 13.4985 13.9016 13.6958 13.7049C13.8986 13.5137 14 13.2732 14 12.9836V1.01639C14 0.726776 13.8986 0.486339 13.6958 0.295082C13.4985 0.0983606 13.2519 0 12.956 0C12.6545 0 12.4024 0.0983606 12.1996 0.295082C12.0023 0.486339 11.9037 0.726776 11.9037 1.01639V12.9836C11.9037 13.2732 12.0023 13.5137 12.1996 13.7049C12.4024 13.9016 12.6545 14 12.956 14ZM1.41398 13.6967C1.60579 13.6967 1.78665 13.6694 1.95655 13.6148C2.13192 13.5656 2.31278 13.4863 2.49912 13.377L10.9501 8.43443C11.268 8.24317 11.5118 8.03005 11.6817 7.79508C11.8571 7.56011 11.9448 7.29235 11.9448 6.9918C11.9448 6.69126 11.8599 6.42896 11.69 6.20492C11.5201 5.97541 11.2734 5.76229 10.9501 5.56557L2.49912 0.622951C2.3073 0.513661 2.12644 0.434426 1.95655 0.385246C1.78665 0.330601 1.60579 0.303279 1.41398 0.303279C1.02486 0.303279 0.690546 0.445355 0.411039 0.729508C0.137013 1.0082 0 1.40984 0 1.93443V12.0656C0 12.5902 0.139753 12.9918 0.41926 13.2705C0.698767 13.5546 1.03034 13.6967 1.41398 13.6967Z" fill="#171717"/>
</svg>
