<svg width="16" height="16" viewBox="0 0 16 16" fill="none" xmlns="http://www.w3.org/2000/svg">
<path d="M2.04404 15C2.34547 15 2.59757 14.9016 2.80035 14.7049C3.00313 14.5137 3.10452 14.2732 3.10452 13.9836V2.01639C3.10452 1.72678 3.00313 1.48634 2.80035 1.29508C2.59757 1.09836 2.34547 1 2.04404 1C1.74809 1 1.49873 1.09836 1.29595 1.29508C1.09865 1.48634 1 1.72678 1 2.01639V13.9836C1 14.2732 1.09865 14.5137 1.29595 14.7049C1.49873 14.9016 1.74809 15 2.04404 15ZM13.586 14.6967C13.9697 14.6967 14.3012 14.5546 14.5807 14.2705C14.8602 13.9918 15 13.5902 15 13.0656V2.93443C15 2.40984 14.8602 2.0082 14.5807 1.72951C14.3067 1.44536 13.9779 1.30328 13.5942 1.30328C13.4024 1.30328 13.2188 1.3306 13.0435 1.38525C12.8736 1.43443 12.6954 1.51366 12.5091 1.62295L4.05813 6.56557C3.7293 6.76229 3.47994 6.97541 3.31004 7.20492C3.14563 7.42896 3.06342 7.69126 3.06342 7.9918C3.06342 8.29235 3.14837 8.56011 3.31826 8.79508C3.48816 9.03005 3.73478 9.24317 4.05813 9.43443L12.5091 14.377C12.6954 14.4863 12.8736 14.5656 13.0435 14.6148C13.2188 14.6694 13.3997 14.6967 13.586 14.6967Z" fill="#171717"/>
</svg>
