<svg width="16" height="16" viewBox="0 0 16 16" fill="none" xmlns="http://www.w3.org/2000/svg">
    <path
        d="M0.749091 8.35695C0.962424 8.35695 1.13939 8.2818 1.28 8.13151C1.42545 7.98121 1.49818 7.79585 1.49818 7.57542V6.9066C1.49818 6.25532 1.69455 5.7368 2.08727 5.35105C2.48485 4.96529 3.01818 4.77241 3.68727 4.77241H9.30909V6.50832C9.30909 6.68867 9.35758 6.82895 9.45455 6.92915C9.55636 7.02934 9.69697 7.07944 9.87636 7.07944C9.95879 7.07944 10.0339 7.06692 10.1018 7.04187C10.1745 7.01181 10.24 6.96922 10.2982 6.91412L13.1564 4.45679C13.2921 4.34156 13.36 4.20379 13.36 4.04348C13.3648 3.87815 13.297 3.73537 13.1564 3.61514L10.2982 1.1503C10.24 1.1002 10.1745 1.06262 10.1018 1.03757C10.0339 1.01252 9.95879 1 9.87636 1C9.69697 1 9.55636 1.0501 9.45455 1.1503C9.35758 1.24548 9.30909 1.38576 9.30909 1.57112V3.26194H3.80364C3.02788 3.26194 2.35636 3.40222 1.78909 3.68277C1.22182 3.96332 0.780606 4.36661 0.465455 4.89265C0.155152 5.41367 0 6.03489 0 6.75631V7.57542C0 7.79585 0.070303 7.98121 0.210909 8.13151C0.356364 8.2818 0.535758 8.35695 0.749091 8.35695ZM15.2509 7.63553C15.0376 7.63553 14.8582 7.71068 14.7127 7.86098C14.5721 8.00626 14.5018 8.18912 14.5018 8.40955V9.07837C14.5018 9.72965 14.303 10.2482 13.9055 10.6339C13.5127 11.0147 12.9794 11.205 12.3055 11.205H6.68364V9.49168C6.68364 9.30632 6.63515 9.16354 6.53818 9.06334C6.44121 8.96314 6.30545 8.91304 6.13091 8.91304C6.04848 8.91304 5.97091 8.92807 5.89818 8.95813C5.82545 8.98318 5.76 9.02075 5.70182 9.07085L2.84364 11.5282C2.70788 11.6534 2.63758 11.7962 2.63273 11.9565C2.63273 12.1168 2.70303 12.2546 2.84364 12.3698L5.70182 14.8347C5.76 14.8848 5.82545 14.9249 5.89818 14.9549C5.97091 14.985 6.04848 15 6.13091 15C6.30545 15 6.44121 14.9474 6.53818 14.8422C6.63515 14.742 6.68364 14.6017 6.68364 14.4214V12.7305H12.1964C12.9721 12.7305 13.6436 12.5903 14.2109 12.3097C14.783 12.0242 15.2242 11.6209 15.5345 11.0998C15.8448 10.5738 16 9.95008 16 9.22866V8.40955C16 8.18912 15.9273 8.00626 15.7818 7.86098C15.6412 7.71068 15.4642 7.63553 15.2509 7.63553Z"
        fill="#171717" />
</svg>