<svg width="16" height="16" viewBox="0 0 16 16" fill="none" xmlns="http://www.w3.org/2000/svg">
<path d="M0 11.8793C0 12.1094 0.0722199 12.3011 0.21666 12.4545C0.365477 12.6079 0.551498 12.6846 0.774723 12.6846H2.357C2.93476 12.6846 3.41841 12.5792 3.80796 12.3683C4.19751 12.1573 4.58268 11.8026 4.96348 11.3041L9.04719 5.93272C9.2354 5.68344 9.41704 5.48451 9.59212 5.3359C9.77158 5.1825 9.96198 5.07465 10.1633 5.01233C10.3647 4.94521 10.5988 4.91166 10.8658 4.91166H12.1658V6.47201C12.1658 6.66376 12.2139 6.81476 12.3102 6.92501C12.4109 7.03527 12.551 7.0904 12.7304 7.0904C12.8136 7.0904 12.8902 7.07601 12.9602 7.04725C13.0302 7.0137 13.0937 6.97055 13.1506 6.91782L15.7965 4.48742C15.9322 4.36757 16 4.22137 16 4.04879C16 3.87143 15.9322 3.72042 15.7965 3.59579L13.1506 1.16538C13.0937 1.11265 13.0302 1.07191 12.9602 1.04314C12.8902 1.01438 12.8136 1 12.7304 1C12.551 1 12.4109 1.05513 12.3102 1.16538C12.2139 1.27084 12.1658 1.42185 12.1658 1.61839V3.29379H10.9052C10.2924 3.29379 9.76939 3.40404 9.33607 3.62455C8.90275 3.84027 8.46724 4.23575 8.02954 4.81099L4.07058 10.0385C3.79045 10.4124 3.51252 10.6785 3.23677 10.8367C2.96102 10.9949 2.63275 11.074 2.25195 11.074H0.774723C0.551498 11.074 0.365477 11.1507 0.21666 11.3041C0.0722199 11.4575 0 11.6492 0 11.8793ZM0 4.10632C0 4.33642 0.0722199 4.52816 0.21666 4.68156C0.365477 4.83496 0.551498 4.91166 0.774723 4.91166H2.17316C2.56271 4.91166 2.90631 4.99076 3.20394 5.14895C3.50157 5.30714 3.79045 5.57319 4.07058 5.9471L8.0952 11.2537C8.49788 11.781 8.92026 12.1525 9.36233 12.3683C9.8044 12.5792 10.3165 12.6846 10.8986 12.6846H12.1658V14.3816C12.1658 14.5782 12.2139 14.7292 12.3102 14.8346C12.4109 14.9449 12.551 15 12.7304 15C12.8136 15 12.8902 14.9856 12.9602 14.9569C13.0302 14.9281 13.0937 14.8873 13.1506 14.8346L15.7965 12.4042C15.9322 12.2796 16 12.131 16 11.9584C16 11.7858 15.9322 11.6372 15.7965 11.5126L13.1506 9.08218C13.0937 9.02945 13.0302 8.9887 12.9602 8.95994C12.8902 8.92638 12.8136 8.9096 12.7304 8.9096C12.551 8.9096 12.4109 8.96473 12.3102 9.07499C12.2139 9.18524 12.1658 9.33624 12.1658 9.52799V11.074H10.9249C10.5266 11.074 10.1808 10.9949 9.88757 10.8367C9.59869 10.6737 9.31418 10.4076 9.03406 10.0385L4.96348 4.67437C4.58268 4.17583 4.18438 3.82349 3.76857 3.61736C3.35276 3.40644 2.85816 3.30098 2.28478 3.30098H0.774723C0.551498 3.30098 0.365477 3.37768 0.21666 3.53107C0.0722199 3.67968 0 3.87143 0 4.10632Z" fill="#171717"/>
</svg>
