<svg width="10" height="14" viewBox="0 0 10 14" fill="none" xmlns="http://www.w3.org/2000/svg">
<path d="M8.1123 13.333C7.90723 13.333 7.71582 13.292 7.53809 13.21C7.36491 13.1279 7.18034 12.9935 6.98438 12.8066L4.21582 10.209C4.17936 10.1771 4.13379 10.1611 4.0791 10.1611H2.17871C1.61816 10.1611 1.1875 10.0062 0.886719 9.69629C0.585938 9.38184 0.435547 8.92839 0.435547 8.33594V5.80664C0.435547 5.21875 0.585938 4.76986 0.886719 4.45996C1.1875 4.14551 1.61816 3.98828 2.17871 3.98828H4.08594C4.13151 3.98828 4.17708 3.97005 4.22266 3.93359L6.98438 1.35645C7.19401 1.15592 7.38314 1.01465 7.55176 0.932617C7.72038 0.846029 7.90267 0.802734 8.09863 0.802734C8.41309 0.802734 8.67285 0.909831 8.87793 1.12402C9.08301 1.33366 9.18555 1.59115 9.18555 1.89648V12.2666C9.18555 12.5674 9.08301 12.8203 8.87793 13.0254C8.67285 13.2305 8.41764 13.333 8.1123 13.333Z" fill="#858585"/>
</svg>
